<mxfile host="Electron" modified="2023-12-09T10:17:42.008Z" agent="Mozilla/5.0 (X11; Linux x86_64) AppleWebKit/537.36 (KHTML, like Gecko) draw.io/22.1.2 Chrome/114.0.5735.289 Electron/25.9.4 Safari/537.36" etag="UQUz9NXiCMNrElBRM0ds" version="22.1.2" type="device">
  <diagram name="Page-1" id="ilADz-mwWo3mh5X2rP8T">
    <mxGraphModel dx="818" dy="531" grid="1" gridSize="10" guides="1" tooltips="1" connect="1" arrows="1" fold="1" page="1" pageScale="1" pageWidth="827" pageHeight="1169" math="0" shadow="0">
      <root>
        <mxCell id="0" />
        <mxCell id="1" parent="0" />
        <mxCell id="VKE2D3eA6fGJhAk98IT1-2" value="A" style="ellipse;whiteSpace=wrap;html=1;aspect=fixed;" vertex="1" parent="1">
          <mxGeometry x="160" y="40" width="30" height="30" as="geometry" />
        </mxCell>
        <mxCell id="VKE2D3eA6fGJhAk98IT1-3" value="B" style="ellipse;whiteSpace=wrap;html=1;aspect=fixed;" vertex="1" parent="1">
          <mxGeometry x="160" y="120" width="30" height="30" as="geometry" />
        </mxCell>
        <mxCell id="VKE2D3eA6fGJhAk98IT1-4" value="C" style="ellipse;whiteSpace=wrap;html=1;aspect=fixed;" vertex="1" parent="1">
          <mxGeometry x="160" y="200" width="30" height="30" as="geometry" />
        </mxCell>
        <mxCell id="VKE2D3eA6fGJhAk98IT1-5" value="D" style="ellipse;whiteSpace=wrap;html=1;aspect=fixed;" vertex="1" parent="1">
          <mxGeometry x="120" y="280" width="30" height="30" as="geometry" />
        </mxCell>
        <mxCell id="VKE2D3eA6fGJhAk98IT1-6" value="E" style="ellipse;whiteSpace=wrap;html=1;aspect=fixed;" vertex="1" parent="1">
          <mxGeometry x="200" y="280" width="30" height="30" as="geometry" />
        </mxCell>
        <mxCell id="VKE2D3eA6fGJhAk98IT1-7" value="F" style="ellipse;whiteSpace=wrap;html=1;aspect=fixed;" vertex="1" parent="1">
          <mxGeometry x="160" y="360" width="30" height="30" as="geometry" />
        </mxCell>
        <mxCell id="VKE2D3eA6fGJhAk98IT1-8" value="" style="endArrow=classic;html=1;rounded=0;exitX=0.5;exitY=1;exitDx=0;exitDy=0;entryX=0.5;entryY=0;entryDx=0;entryDy=0;" edge="1" parent="1" source="VKE2D3eA6fGJhAk98IT1-2" target="VKE2D3eA6fGJhAk98IT1-3">
          <mxGeometry width="50" height="50" relative="1" as="geometry">
            <mxPoint x="440" y="110" as="sourcePoint" />
            <mxPoint x="490" y="60" as="targetPoint" />
          </mxGeometry>
        </mxCell>
        <mxCell id="VKE2D3eA6fGJhAk98IT1-9" value="" style="endArrow=classic;html=1;rounded=0;exitX=0.5;exitY=1;exitDx=0;exitDy=0;" edge="1" parent="1" source="VKE2D3eA6fGJhAk98IT1-3" target="VKE2D3eA6fGJhAk98IT1-4">
          <mxGeometry width="50" height="50" relative="1" as="geometry">
            <mxPoint x="185" y="80" as="sourcePoint" />
            <mxPoint x="185" y="130" as="targetPoint" />
          </mxGeometry>
        </mxCell>
        <mxCell id="VKE2D3eA6fGJhAk98IT1-14" value="" style="rounded=0;whiteSpace=wrap;html=1;fillColor=none;dashed=1;" vertex="1" parent="1">
          <mxGeometry x="130" y="30" width="70" height="130" as="geometry" />
        </mxCell>
        <mxCell id="VKE2D3eA6fGJhAk98IT1-10" value="" style="endArrow=classic;html=1;rounded=0;exitX=0.5;exitY=1;exitDx=0;exitDy=0;entryX=0.5;entryY=0;entryDx=0;entryDy=0;" edge="1" parent="1" source="VKE2D3eA6fGJhAk98IT1-4" target="VKE2D3eA6fGJhAk98IT1-6">
          <mxGeometry width="50" height="50" relative="1" as="geometry">
            <mxPoint x="185" y="160" as="sourcePoint" />
            <mxPoint x="185" y="210" as="targetPoint" />
          </mxGeometry>
        </mxCell>
        <mxCell id="VKE2D3eA6fGJhAk98IT1-11" value="" style="endArrow=classic;html=1;rounded=0;exitX=0.5;exitY=1;exitDx=0;exitDy=0;entryX=0.5;entryY=0;entryDx=0;entryDy=0;" edge="1" parent="1" source="VKE2D3eA6fGJhAk98IT1-4" target="VKE2D3eA6fGJhAk98IT1-5">
          <mxGeometry width="50" height="50" relative="1" as="geometry">
            <mxPoint x="185" y="240" as="sourcePoint" />
            <mxPoint x="225" y="290" as="targetPoint" />
          </mxGeometry>
        </mxCell>
        <mxCell id="VKE2D3eA6fGJhAk98IT1-15" value="" style="rounded=0;whiteSpace=wrap;html=1;fillColor=none;dashed=1;" vertex="1" parent="1">
          <mxGeometry x="150" y="20" width="70" height="230" as="geometry" />
        </mxCell>
        <mxCell id="VKE2D3eA6fGJhAk98IT1-12" value="" style="endArrow=classic;html=1;rounded=0;exitX=0.5;exitY=1;exitDx=0;exitDy=0;entryX=0.5;entryY=0;entryDx=0;entryDy=0;" edge="1" parent="1" source="VKE2D3eA6fGJhAk98IT1-6" target="VKE2D3eA6fGJhAk98IT1-7">
          <mxGeometry width="50" height="50" relative="1" as="geometry">
            <mxPoint x="185" y="240" as="sourcePoint" />
            <mxPoint x="145" y="290" as="targetPoint" />
          </mxGeometry>
        </mxCell>
        <mxCell id="VKE2D3eA6fGJhAk98IT1-13" value="" style="endArrow=classic;html=1;rounded=0;exitX=0.5;exitY=1;exitDx=0;exitDy=0;entryX=0.5;entryY=0;entryDx=0;entryDy=0;" edge="1" parent="1" source="VKE2D3eA6fGJhAk98IT1-5" target="VKE2D3eA6fGJhAk98IT1-7">
          <mxGeometry width="50" height="50" relative="1" as="geometry">
            <mxPoint x="225" y="320" as="sourcePoint" />
            <mxPoint x="185" y="370" as="targetPoint" />
          </mxGeometry>
        </mxCell>
        <mxCell id="VKE2D3eA6fGJhAk98IT1-16" value="" style="rounded=0;whiteSpace=wrap;html=1;fillColor=none;dashed=1;" vertex="1" parent="1">
          <mxGeometry x="110" y="180" width="150" height="150" as="geometry" />
        </mxCell>
        <mxCell id="VKE2D3eA6fGJhAk98IT1-17" value="" style="rounded=0;whiteSpace=wrap;html=1;fillColor=none;dashed=1;" vertex="1" parent="1">
          <mxGeometry x="90" y="260" width="150" height="150" as="geometry" />
        </mxCell>
        <mxCell id="VKE2D3eA6fGJhAk98IT1-18" value="Single Inheritance" style="text;html=1;strokeColor=none;fillColor=none;align=center;verticalAlign=middle;whiteSpace=wrap;rounded=0;" vertex="1" parent="1">
          <mxGeometry x="320" y="50" width="110" height="30" as="geometry" />
        </mxCell>
        <mxCell id="VKE2D3eA6fGJhAk98IT1-19" value="Multilevel Inheritance" style="text;html=1;strokeColor=none;fillColor=none;align=center;verticalAlign=middle;whiteSpace=wrap;rounded=0;" vertex="1" parent="1">
          <mxGeometry x="320" y="120" width="130" height="30" as="geometry" />
        </mxCell>
        <mxCell id="VKE2D3eA6fGJhAk98IT1-20" value="Multiple Inheritance" style="text;html=1;strokeColor=none;fillColor=none;align=center;verticalAlign=middle;whiteSpace=wrap;rounded=0;" vertex="1" parent="1">
          <mxGeometry x="320" y="360" width="120" height="30" as="geometry" />
        </mxCell>
        <mxCell id="VKE2D3eA6fGJhAk98IT1-21" value="Hierarchical Inheritance" style="text;html=1;strokeColor=none;fillColor=none;align=center;verticalAlign=middle;whiteSpace=wrap;rounded=0;" vertex="1" parent="1">
          <mxGeometry x="320" y="200" width="140" height="30" as="geometry" />
        </mxCell>
        <mxCell id="VKE2D3eA6fGJhAk98IT1-22" value="Hybrid Inheritance" style="text;html=1;strokeColor=none;fillColor=none;align=center;verticalAlign=middle;whiteSpace=wrap;rounded=0;" vertex="1" parent="1">
          <mxGeometry x="105" y="440" width="140" height="30" as="geometry" />
        </mxCell>
        <mxCell id="VKE2D3eA6fGJhAk98IT1-23" value="" style="endArrow=classic;html=1;rounded=0;entryX=0;entryY=0.5;entryDx=0;entryDy=0;" edge="1" parent="1" target="VKE2D3eA6fGJhAk98IT1-18">
          <mxGeometry width="50" height="50" relative="1" as="geometry">
            <mxPoint x="200" y="65" as="sourcePoint" />
            <mxPoint x="300" y="30" as="targetPoint" />
          </mxGeometry>
        </mxCell>
        <mxCell id="VKE2D3eA6fGJhAk98IT1-24" value="" style="endArrow=classic;html=1;rounded=0;exitX=1;exitY=0.5;exitDx=0;exitDy=0;entryX=0;entryY=0.5;entryDx=0;entryDy=0;" edge="1" parent="1" source="VKE2D3eA6fGJhAk98IT1-15" target="VKE2D3eA6fGJhAk98IT1-19">
          <mxGeometry width="50" height="50" relative="1" as="geometry">
            <mxPoint x="230" y="88" as="sourcePoint" />
            <mxPoint x="330" y="75" as="targetPoint" />
          </mxGeometry>
        </mxCell>
        <mxCell id="VKE2D3eA6fGJhAk98IT1-25" value="" style="endArrow=classic;html=1;rounded=0;entryX=0;entryY=0.5;entryDx=0;entryDy=0;" edge="1" parent="1" target="VKE2D3eA6fGJhAk98IT1-20">
          <mxGeometry width="50" height="50" relative="1" as="geometry">
            <mxPoint x="240" y="375" as="sourcePoint" />
            <mxPoint x="590" y="260" as="targetPoint" />
          </mxGeometry>
        </mxCell>
        <mxCell id="VKE2D3eA6fGJhAk98IT1-26" value="" style="endArrow=classic;html=1;rounded=0;entryX=0;entryY=0.5;entryDx=0;entryDy=0;" edge="1" parent="1" target="VKE2D3eA6fGJhAk98IT1-21">
          <mxGeometry width="50" height="50" relative="1" as="geometry">
            <mxPoint x="260" y="215" as="sourcePoint" />
            <mxPoint x="470" y="420" as="targetPoint" />
          </mxGeometry>
        </mxCell>
      </root>
    </mxGraphModel>
  </diagram>
</mxfile>
